<svg xmlns="http://www.w3.org/2000/svg" width="1320" height="538" viewBox="0 0 1320 538" role="img" aria-label="JLG Creative">
<rect width="1320" height="538" fill="#000"/>
<circle cx="270" cy="269" r="235" fill="#f6f2e9"/>
<path d="M82 250c80-28 141-11 188 31 69 62 139 80 221 44-51 98-131 151-236 151-102 0-183-59-220-137 60-2 110-22 147-61-39-27-81-39-100-28z" fill="#9fa04d"/>
<path d="M188 90c111-81 230-17 257 55-98-15-178 16-205 87-23 57-7 114 49 165-126-10-195-89-195-183 0-52 20-97 54-127 12-11 26-22 40-30z" fill="#dd981d"/>
<path d="M239 236c103-24 177-12 257 41-52 2-98 24-137 58-50 44-96 74-139 93 59-35 94-78 109-128-33-23-63-44-90-64z" fill="#5c7faa"/>
<text x="270" y="313" text-anchor="middle" font-family="Georgia,serif" font-size="150" font-weight="700" fill="#0d315b">JLG</text>
<line x1="570" y1="80" x2="570" y2="460" stroke="#d89522" stroke-width="7"/>
<text x="640" y="330" font-family="Georgia,serif" font-size="260" fill="#0d315b">JLG</text>
<text x="665" y="435" font-family="Arial,sans-serif" font-size="58" letter-spacing="28" fill="#0d315b">CREATIVE</text>
</svg>